HIERARCHY
ROOT Hips
{
	OFFSET 0.000000 0.000000 0.000000
	CHANNELS 6 Xposition Yposition Zposition Zrotation Yrotation Xrotation 
	JOINT LHipJoint
	{
		OFFSET 0.000000 0.000000 0.000000
		CHANNELS 3 Zrotation Yrotation Xrotation
		JOINT LeftUpLeg
		{
			OFFSET 1.363060 -1.794630 0.839290
			CHANNELS 3 Zrotation Yrotation Xrotation
			JOINT LeftLeg
			{
				OFFSET 2.448110 -6.726130 0.000000
				CHANNELS 3 Zrotation Yrotation Xrotation
				JOINT LeftFoot
				{
					OFFSET 2.562200 -7.039590 0.000000
					CHANNELS 3 Zrotation Yrotation Xrotation
					JOINT LeftToeBase
					{
						OFFSET 0.157640 -0.433110 2.322550
						CHANNELS 3 Zrotation Yrotation Xrotation
						End Site
						{
							OFFSET 0.000000 0.000000 0.000000
						}
					}
				}
			}
		}
	}
	JOINT RHipJoint
	{
		OFFSET 0.000000 0.000000 0.000000
		CHANNELS 3 Zrotation Yrotation Xrotation
		JOINT RightUpLeg
		{
			OFFSET -1.305520 -1.794630 0.839290
			CHANNELS 3 Zrotation Yrotation Xrotation
			JOINT RightLeg
			{
				OFFSET -2.542530 -6.985550 0.000000
				CHANNELS 3 Zrotation Yrotation Xrotation
				JOINT RightFoot
				{
					OFFSET -2.568260 -7.056230 0.000000
					CHANNELS 3 Zrotation Yrotation Xrotation
					JOINT RightToeBase
					{
						OFFSET -0.164730 -0.452590 2.363150
						CHANNELS 3 Zrotation Yrotation Xrotation
						End Site
						{
							OFFSET 0.000000 0.000000 0.000000
						}
					}
				}
			}
		}
	}
	JOINT LowerBack
	{
		OFFSET 0.000000 0.000000 0.000000
		CHANNELS 3 Zrotation Yrotation Xrotation
		JOINT Spine
		{
			OFFSET 0.028270 2.035590 -0.193380
			CHANNELS 3 Zrotation Yrotation Xrotation
			JOINT Spine1
			{
				OFFSET 0.056720 2.048850 -0.042750
				CHANNELS 3 Zrotation Yrotation Xrotation
				JOINT Neck
				{
					OFFSET 0.000000 0.000000 0.000000
					CHANNELS 3 Zrotation Yrotation Xrotation
					JOINT Neck1
					{
						OFFSET -0.054170 1.746240 0.172020
						CHANNELS 3 Zrotation Yrotation Xrotation
						JOINT Head
						{
							OFFSET 0.104070 1.761360 -0.123970
							CHANNELS 3 Zrotation Yrotation Xrotation
							End Site
							{
								OFFSET 0.000000 0.000000 0.000000
							}
						}
					}
				}
				JOINT LeftShoulder
				{
					OFFSET 0.000000 0.000000 0.000000
					CHANNELS 3 Zrotation Yrotation Xrotation
					JOINT LeftArm
					{
						OFFSET 3.362410 1.200890 -0.311210
						CHANNELS 3 Zrotation Yrotation Xrotation
						JOINT LeftForeArm
						{
							OFFSET 4.983000 -0.000000 -0.000000
							CHANNELS 3 Zrotation Yrotation Xrotation
							JOINT LeftHand
							{
								OFFSET 3.483560 -0.000000 -0.000000
								CHANNELS 3 Zrotation Yrotation Xrotation
								JOINT LeftFingerBase
								{
									OFFSET 0.000000 0.000000 0.000000
									CHANNELS 3 Zrotation Yrotation Xrotation
									JOINT LeftHandIndex1
									{
										OFFSET 0.715260 -0.000000 -0.000000
										CHANNELS 3 Zrotation Yrotation Xrotation
										End Site
										{
											OFFSET 0.000000 0.000000 0.000000
										}
									}
								}
								JOINT LThumb
								{
									OFFSET 0.000000 0.000000 0.000000
									CHANNELS 3 Zrotation Yrotation Xrotation
									End Site
									{
										OFFSET 0.000000 0.000000 0.000000
									}
								}
							}
						}
					}
				}
				JOINT RightShoulder
				{
					OFFSET 0.000000 0.000000 0.000000
					CHANNELS 3 Zrotation Yrotation Xrotation
					JOINT RightArm
					{
						OFFSET -3.136600 1.374050 -0.404650
						CHANNELS 3 Zrotation Yrotation Xrotation
						JOINT RightForeArm
						{
							OFFSET -5.241900 -0.000000 -0.000000
							CHANNELS 3 Zrotation Yrotation Xrotation
							JOINT RightHand
							{
								OFFSET -3.444170 -0.000000 -0.000000
								CHANNELS 3 Zrotation Yrotation Xrotation
								JOINT RightFingerBase
								{
									OFFSET 0.000000 0.000000 0.000000
									CHANNELS 3 Zrotation Yrotation Xrotation
									JOINT RightHandIndex1
									{
										OFFSET -0.622530 -0.000000 -0.000000
										CHANNELS 3 Zrotation Yrotation Xrotation
										End Site
										{
											OFFSET 0.000000 0.000000 0.000000
										}
									}
								}
								JOINT RThumb
								{
									OFFSET 0.000000 0.000000 0.000000
									CHANNELS 3 Zrotation Yrotation Xrotation
									End Site
									{
										OFFSET 0.000000 0.000000 0.000000
									}
								}
							}
						}
					}
				}
			}
		}
	}
}
MOTION
Frames: 8
Frame Time: 0.008333
21.818372 16.835935 1.263750 173.733272 -89.523019 -140.698201 -9.490642 -0.184146 5.265290 -2.364359 -17.522968 -39.881367 -0.613443 -0.702365 23.718622 4.368565 16.974137 -21.798690 -3.872200 0.000000 -30.881600 6.908571 -0.293243 4.843703 4.958568 16.270141 -38.708962 1.776626 0.667140 22.101360 -3.546983 -8.490835 -22.203918 2.160100 0.000000 -50.287300 1.864241 -2.200895 -8.160430 -0.200070 -2.711616 -4.458837 -5.920311 -2.888474 0.912438 11.816516 -12.628998 -14.483732 -2.303097 -0.074589 -2.109779 0.000000 0.000000 0.000000 1.068936 10.832141 3.124727 -80.878346 14.108319 -0.224855 -1.191990 -44.624126 -0.017480 28.752909 -5.859093 -1.528104 -0.151781 0.071481 -0.000000 0.000000 0.000000 0.000000 0.000000 0.000000 0.000000 12.314124 -8.141296 2.172878 81.750720 1.600761 -1.064642 1.641790 41.558591 -0.025107 -19.327661 15.349939 -2.697088 0.194766 -0.246903 -0.000000 0.000000 0.000000 0.000000 0.000000 0.000000 0.000000 
21.795735 16.762808 1.271452 175.844795 -89.336133 -142.012928 -9.388190 -0.231296 5.330712 -2.234139 -17.932181 -41.917988 -0.582119 -0.550762 26.227166 4.529539 17.193286 -23.149581 -4.333599 0.000000 -29.806200 6.929448 -0.180102 4.955697 4.514270 16.768944 -41.006202 1.662116 0.410415 25.077579 -3.665393 -8.433055 -23.639005 2.436600 -0.000000 -49.567500 1.853024 -2.150783 -8.302112 -0.198591 -2.669682 -4.490641 -5.904163 -2.847809 0.914701 11.900319 -12.923701 -14.756793 -2.229936 -0.063125 -2.200754 0.000000 0.000000 0.000000 0.950523 11.401606 3.076471 -80.689591 14.976310 0.218337 -1.053591 -48.061277 -0.017528 30.834678 -6.732014 -1.887667 -0.165477 0.075379 -0.000000 0.000000 0.000000 0.000000 0.000000 0.000000 0.000000 12.005966 -8.344936 2.121481 81.623331 0.988800 -0.547333 1.503313 44.605393 -0.028438 -21.345357 16.682815 -3.244776 0.208338 -0.259797 -0.000000 0.000000 0.000000 0.000000 0.000000 0.000000 0.000000 
21.773060 16.677767 1.277747 -179.355792 -89.128660 -146.010861 -9.245633 -0.229513 5.395139 -2.150613 -18.248663 -44.077639 -0.559175 -0.373001 28.903814 4.685557 17.367119 -24.543803 -4.804299 0.000000 -28.746000 7.012321 -0.014712 5.068800 4.077941 17.191928 -43.408167 1.540430 0.143933 28.239994 -3.777156 -8.358081 -25.124465 2.718400 0.000000 -48.653599 1.854412 -2.086473 -8.457395 -0.193904 -2.618283 -4.521453 -5.891185 -2.798299 0.933528 12.008597 -13.263983 -15.045517 -2.148636 -0.050533 -2.295765 0.000000 0.000000 0.000000 0.866122 12.034197 3.009229 -80.468766 15.830873 0.491961 -0.919001 -51.801447 -0.017294 32.986770 -7.792260 -2.345087 -0.182345 0.081070 -0.000000 0.000000 0.000000 0.000000 0.000000 0.000000 0.000000 11.676948 -8.593381 2.056595 81.448619 0.385202 -0.106603 1.360927 47.920686 -0.031672 -23.577212 18.181418 -3.917841 0.223724 -0.273813 -0.000000 0.000000 0.000000 0.000000 0.000000 0.000000 0.000000 
21.750470 16.580191 1.282548 -170.607274 -88.950409 -153.950919 -9.021248 -0.172038 5.457660 -2.081796 -18.501028 -46.351555 -0.535451 -0.177316 31.739302 4.841823 17.522600 -25.954959 -5.280900 0.000000 -27.736399 7.197875 0.211324 5.195115 3.665096 17.550898 -45.904053 1.409959 -0.136102 31.547491 -3.886536 -8.311247 -26.633145 3.005300 0.000001 -47.546000 1.930723 -2.009525 -8.633861 -0.173066 -2.567221 -4.553757 -5.887382 -2.749981 0.964703 12.143794 -13.629749 -15.343453 -2.064476 -0.037494 -2.392695 0.000000 0.000000 0.000000 0.819130 12.698476 2.926753 -80.239966 16.688191 0.548369 -0.790042 -55.841838 -0.016805 35.160391 -9.045703 -2.913153 -0.202787 0.089220 -0.000000 0.000000 0.000000 0.000000 0.000000 0.000000 0.000000 11.343801 -8.864392 1.980242 81.235739 -0.229931 0.192324 1.216466 51.507199 -0.034660 -25.975861 19.815478 -4.722177 0.240806 -0.289135 -0.000000 0.000000 0.000000 0.000000 0.000000 0.000000 0.000000 
21.727874 16.469593 1.285950 -157.444824 -88.953591 -166.293176 -8.697243 -0.116310 5.512635 -2.007382 -18.754653 -48.717102 -0.496894 0.006966 34.735660 4.999840 17.666403 -27.348470 -5.760500 -0.000000 -26.821700 7.502798 0.443699 5.350612 3.273498 17.823019 -48.498502 1.274448 -0.454375 34.951693 -3.999223 -8.349123 -28.148308 3.300600 -0.000000 -46.261400 2.125259 -1.966130 -8.839949 -0.122172 -2.566205 -4.585381 -5.889407 -2.751600 1.020826 12.306892 -14.037948 -15.659565 -1.977131 -0.023921 -2.494141 0.000000 0.000000 0.000000 0.822101 13.387227 2.835013 -80.024491 17.498640 0.406988 -0.671871 -60.117990 -0.016183 37.303456 -10.488862 -3.600655 -0.227595 0.100833 -0.000000 0.000000 0.000000 0.000000 0.000000 0.000000 0.000000 11.016970 -9.197594 1.887766 80.987765 -0.821935 0.352923 1.071452 55.312001 -0.037277 -28.500860 21.542719 -5.658589 0.259462 -0.305761 0.000000 0.000000 0.000000 0.000000 0.000000 0.000000 0.000000 
21.705559 16.345906 1.288101 -142.148006 -89.244351 179.235911 -8.399566 -0.174195 5.571425 -1.964509 -19.095816 -51.142968 -0.433979 0.164349 37.870699 5.155715 17.817433 -28.687251 -6.241000 0.000000 -26.048500 7.803804 0.576528 5.523274 2.841200 17.954053 -51.188408 1.134934 -0.823056 38.428695 -4.121059 -8.498612 -29.652992 3.607900 0.000000 -44.854000 2.281263 -2.023485 -9.081745 -0.070375 -2.659724 -4.617107 -5.884784 -2.846079 1.100763 12.490655 -14.469272 -15.987349 -1.890734 -0.010260 -2.598340 0.000000 0.000000 0.000000 0.887770 14.050502 2.742985 -79.840063 18.247307 0.071514 -0.568308 -64.578334 -0.015589 39.356605 -12.103911 -4.406979 -0.257425 0.117020 -0.000000 0.000000 0.000000 0.000000 0.000000 0.000000 0.000000 10.710459 -9.594146 1.779836 80.717322 -1.392208 0.338448 0.925301 59.285511 -0.039669 -31.079080 23.309949 -6.711775 0.279218 -0.324115 0.000000 0.000000 0.000000 0.000000 0.000000 0.000000 0.000000 
21.683899 16.209241 1.289288 -128.978645 -89.650728 166.895350 -8.245299 -0.320246 5.658641 -1.975892 -19.509098 -53.632319 -0.353415 0.335221 41.093471 5.306904 18.021031 -29.960628 -6.719900 0.000000 -25.459000 7.985097 0.639968 5.682615 2.326536 17.984250 -53.933505 0.977048 -1.197741 41.992308 -4.253348 -8.739377 -31.109277 3.931800 0.000000 -43.394300 2.225518 -2.143184 -9.353682 -0.060239 -2.787873 -4.647528 -5.862665 -2.973498 1.209089 12.695057 -14.927798 -16.329576 -1.801777 0.004118 -2.706387 0.000000 0.000000 0.000000 1.029218 14.724717 2.647642 -79.696808 18.883401 -0.415315 -0.477985 -69.127184 -0.015386 41.267358 -13.861494 -5.322526 -0.292015 0.138899 -0.000000 0.000000 0.000000 0.000000 0.000000 0.000000 0.000000 10.423126 -10.034113 1.663727 80.436399 -1.889652 0.178499 0.785061 63.327985 -0.041846 -33.643746 25.056076 -7.855531 0.300573 -0.344752 0.000000 0.000000 0.000000 0.000000 0.000000 0.000000 0.000000 
21.663525 16.060266 1.289858 59.819408 -89.986946 -21.085229 -8.181913 -0.462355 5.769675 -2.000027 -19.930428 -56.176766 -0.258672 0.543845 44.379077 5.452385 18.288078 -31.167625 -7.193800 0.000000 -25.086900 8.095738 0.728437 5.824001 1.769702 17.989885 -56.678840 0.794038 -1.548638 45.624192 -4.390950 -9.059596 -32.475331 4.272800 0.000000 -42.008900 2.028953 -2.254117 -9.637316 -0.081306 -2.890273 -4.676740 -5.828577 -3.075077 1.331995 12.910223 -15.378019 -16.672648 -1.713765 0.018709 -2.814558 0.000000 0.000000 0.000000 1.243636 15.396220 2.550796 -79.610847 19.406338 -1.050004 -0.398118 -73.687699 -0.016119 42.989587 -15.722596 -6.327104 -0.330191 0.167423 0.000000 0.000000 0.000000 0.000000 0.000000 0.000000 0.000000 10.146938 -10.447722 1.548494 80.154550 -2.312384 -0.140179 0.655720 67.365299 -0.044023 -36.103843 26.720291 -9.045757 0.323724 -0.368402 0.000000 0.000000 0.000000 0.000000 0.000000 0.000000 0.000000 
